<?xml version="1.0" encoding="UTF-8" standalone="no"?>
<!-- Created with Inkscape (http://www.inkscape.org/) -->

<svg
   xmlns:dc="http://purl.org/dc/elements/1.1/"
   xmlns:cc="http://creativecommons.org/ns#"
   xmlns:rdf="http://www.w3.org/1999/02/22-rdf-syntax-ns#"
   xmlns:svg="http://www.w3.org/2000/svg"
   xmlns="http://www.w3.org/2000/svg"
   xmlns:sodipodi="http://sodipodi.sourceforge.net/DTD/sodipodi-0.dtd"
   xmlns:inkscape="http://www.inkscape.org/namespaces/inkscape"
   version="1.1"
   id="svg2"
   width="40"
   height="40"
   viewBox="0 0 40 40"
   sodipodi:docname="mail.svg"
   inkscape:version="0.91 r13725">
  <metadata
     id="metadata8">
    <rdf:RDF>
      <cc:Work
         rdf:about="">
        <dc:format>image/svg+xml</dc:format>
        <dc:type
           rdf:resource="http://purl.org/dc/dcmitype/StillImage" />
        <dc:title />
      </cc:Work>
    </rdf:RDF>
  </metadata>
  <defs
     id="defs6" />
  <sodipodi:namedview
     pagecolor="#ffffff"
     bordercolor="#666666"
     borderopacity="1"
     objecttolerance="10"
     gridtolerance="10"
     guidetolerance="10"
     inkscape:pageopacity="0"
     inkscape:pageshadow="2"
     inkscape:window-width="1280"
     inkscape:window-height="719"
     id="namedview4"
     showgrid="false"
     inkscape:zoom="2.3875122"
     inkscape:cx="76.998338"
     inkscape:cy="10.723112"
     inkscape:window-x="0"
     inkscape:window-y="1"
     inkscape:window-maximized="1"
     inkscape:current-layer="svg2" />
  <path
     style="fill:#ff014b;stroke-width:0.15427209;fill-opacity:1"
     d="M 17.107113,39.561547 C 13.147509,38.863748 9.663064,37.046226 6.7645695,34.166778 4.4349433,31.852461 2.9167036,29.391626 1.9544409,26.370275 1.3294662,24.407967 1.1082428,22.837018 1.1180369,20.4308 1.1425793,14.402013 3.9398284,8.8947566 8.8124968,5.2818885 15.404509,0.39421355 24.418094,0.15082085 31.216814,4.6769064 c 2.994118,1.9932662 5.065322,4.3513212 6.655694,7.5774726 5.401115,10.956451 -0.669336,23.88978 -12.671669,26.997431 -1.362802,0.352857 -1.999805,0.424015 -4.227229,0.472206 -1.813214,0.03923 -3.006519,-0.0109 -3.866497,-0.162469 z m 6.64339,-2.529741 c 3.211888,-0.665611 5.867145,-2.037397 8.19263,-4.232569 1.757505,-1.659005 2.766548,-2.980104 3.673156,-4.809104 C 39.883797,19.380855 35.982719,9.0392972 27.030567,5.2298126 18.839538,1.7442181 9.2343176,5.3271954 5.3041162,13.334279 3.2471763,17.524941 3.0052651,22.168157 4.620197,26.461436 c 2.0262703,5.386824 6.904789,9.476862 12.670238,10.622437 1.604076,0.318724 4.79493,0.293008 6.460068,-0.05206 z M 9.2204468,29.300367 C 9.0350826,29.225688 8.8094584,29.026379 8.7190643,28.857473 8.6085987,28.651057 8.5547045,25.821265 8.5547045,20.226623 c 0,-7.965648 0.012683,-8.339413 0.2949136,-8.687947 L 9.1445318,11.174473 H 20.415746 31.68695 l 0.351398,0.351398 0.351396,0.351397 v 8.416901 8.4169 l -0.43285,0.372322 -0.43285,0.372323 -10.983284,-0.0098 C 14.499954,29.440454 9.405812,29.375004 9.2204468,29.300318 Z m 20.7415362,-7.67396 c 0.02229,-2.9061 -3.39e-4,-5.28382 -0.05051,-5.28382 -0.05015,0 -2.081622,1.52838 -4.514483,3.396401 -2.432874,1.868021 -4.579595,3.437553 -4.770509,3.487846 -0.190913,0.05029 -0.503315,0.05066 -0.694229,6.91e-4 -0.190913,-0.04985 -2.273584,-1.582142 -4.628161,-3.405099 l -4.281052,-3.314421 v 5.240821 5.240826 l 9.449161,-0.03976 9.44917,-0.03975 z M 24.823894,17.05261 c 2.421801,-1.858 4.403267,-3.402651 4.403267,-3.432554 0,-0.0299 -3.991786,-0.05436 -8.870639,-0.05436 -4.878856,0 -8.866608,0.05206 -8.861676,0.115711 0.01199,0.154784 8.677073,6.817639 8.816588,6.77936 0.06009,-0.01648 2.090647,-1.550141 4.51246,-3.408144 z"
     id="path4319"
     inkscape:connector-curvature="0" />
</svg>
