<?xml version="1.0" encoding="UTF-8" standalone="no"?>
<!-- Generator: Adobe Illustrator 16.0.0, SVG Export Plug-In . SVG Version: 6.00 Build 0)  -->

<svg
   xmlns:dc="http://purl.org/dc/elements/1.1/"
   xmlns:cc="http://creativecommons.org/ns#"
   xmlns:rdf="http://www.w3.org/1999/02/22-rdf-syntax-ns#"
   xmlns:svg="http://www.w3.org/2000/svg"
   xmlns="http://www.w3.org/2000/svg"
   xmlns:sodipodi="http://sodipodi.sourceforge.net/DTD/sodipodi-0.dtd"
   xmlns:inkscape="http://www.inkscape.org/namespaces/inkscape"
   version="1.1"
   id="Capa_1"
   x="0px"
   y="0px"
   width="40"
   height="40"
   viewBox="0 0 40 40"
   xml:space="preserve"
   sodipodi:docname="twitter.svg"
   inkscape:version="0.91 r13725"><metadata
     id="metadata41"><rdf:RDF><cc:Work
         rdf:about=""><dc:format>image/svg+xml</dc:format><dc:type
           rdf:resource="http://purl.org/dc/dcmitype/StillImage" /><dc:title /></cc:Work></rdf:RDF></metadata><defs
     id="defs39" /><sodipodi:namedview
     pagecolor="#ffffff"
     bordercolor="#666666"
     borderopacity="1"
     objecttolerance="10"
     gridtolerance="10"
     guidetolerance="10"
     inkscape:pageopacity="0"
     inkscape:pageshadow="2"
     inkscape:window-width="1280"
     inkscape:window-height="719"
     id="namedview37"
     showgrid="false"
     inkscape:zoom="9.7048773"
     inkscape:cx="49.86636"
     inkscape:cy="7.3340679"
     inkscape:window-x="0"
     inkscape:window-y="1"
     inkscape:window-maximized="1"
     inkscape:current-layer="Capa_1" /><g
     id="g4"
     style="fill:#ff014b;fill-opacity:1"
     transform="matrix(0.07636516,0,0,0.07296775,0.29871229,1.2328098)"><path
       d="M 256,0 C 114.615,0 0,114.615 0,256 0,397.385 114.615,512 256,512 397.385,512 512,397.385 512,256 512,114.615 397.385,0 256,0 Z m 147.121,180.544 c 0.146,3.254 0.221,6.528 0.221,9.819 0,100.311 -76.354,215.982 -215.979,215.982 -42.868,0 -82.768,-12.568 -116.363,-34.106 5.938,0.702 11.981,1.062 18.108,1.062 35.565,0 68.295,-12.138 94.275,-32.496 -33.217,-0.611 -61.25,-22.562 -70.912,-52.717 4.637,0.885 9.392,1.361 14.283,1.361 6.923,0 13.629,-0.928 19.999,-2.662 -34.726,-6.977 -60.893,-37.656 -60.893,-74.434 0,-0.32 0,-0.639 0.008,-0.955 10.235,5.685 21.939,9.1 34.382,9.494 -20.37,-13.611 -33.77,-36.846 -33.77,-63.184 0,-13.911 3.744,-26.952 10.278,-38.162 37.439,45.927 93.374,76.146 156.462,79.314 -1.294,-5.559 -1.965,-11.351 -1.965,-17.302 0,-41.92 33.99,-75.906 75.909,-75.906 21.832,0 41.562,9.218 55.408,23.97 17.291,-3.404 33.537,-9.721 48.207,-18.42 -5.668,17.727 -17.705,32.603 -33.377,41.997 15.355,-1.834 29.984,-5.916 43.598,-11.952 -10.176,15.224 -23.045,28.593 -37.879,39.297 z"
       id="path2"
       style="fill:#ff014b;fill-opacity:1"
       inkscape:connector-curvature="0" /></g><g
     id="g6"
     transform="translate(0,-472)" /><g
     id="g8"
     transform="translate(0,-472)" /><g
     id="g10"
     transform="translate(0,-472)" /><g
     id="g12"
     transform="translate(0,-472)" /><g
     id="g14"
     transform="translate(0,-472)" /><g
     id="g16"
     transform="translate(0,-472)" /><g
     id="g18"
     transform="translate(0,-472)" /><g
     id="g20"
     transform="translate(0,-472)" /><g
     id="g22"
     transform="translate(0,-472)" /><g
     id="g24"
     transform="translate(0,-472)" /><g
     id="g26"
     transform="translate(0,-472)" /><g
     id="g28"
     transform="translate(0,-472)" /><g
     id="g30"
     transform="translate(0,-472)" /><g
     id="g32"
     transform="translate(0,-472)" /><g
     id="g34"
     transform="translate(0,-472)" /></svg>