<?xml version="1.0" encoding="UTF-8" standalone="no"?>
<!-- Created with Inkscape (http://www.inkscape.org/) -->

<svg
   xmlns:dc="http://purl.org/dc/elements/1.1/"
   xmlns:cc="http://creativecommons.org/ns#"
   xmlns:rdf="http://www.w3.org/1999/02/22-rdf-syntax-ns#"
   xmlns:svg="http://www.w3.org/2000/svg"
   xmlns="http://www.w3.org/2000/svg"
   xmlns:sodipodi="http://sodipodi.sourceforge.net/DTD/sodipodi-0.dtd"
   xmlns:inkscape="http://www.inkscape.org/namespaces/inkscape"
   version="1.1"
   id="svg2"
   width="40"
   height="40"
   viewBox="0 0 40 40"
   sodipodi:docname="instagram.svg"
   inkscape:version="0.91 r13725">
  <metadata
     id="metadata8">
    <rdf:RDF>
      <cc:Work
         rdf:about="">
        <dc:format>image/svg+xml</dc:format>
        <dc:type
           rdf:resource="http://purl.org/dc/dcmitype/StillImage" />
        <dc:title />
      </cc:Work>
    </rdf:RDF>
  </metadata>
  <defs
     id="defs6" />
  <sodipodi:namedview
     pagecolor="#ffffff"
     bordercolor="#666666"
     borderopacity="1"
     objecttolerance="10"
     gridtolerance="10"
     guidetolerance="10"
     inkscape:pageopacity="0"
     inkscape:pageshadow="2"
     inkscape:window-width="1280"
     inkscape:window-height="719"
     id="namedview4"
     showgrid="false"
     inkscape:zoom="6.4232221"
     inkscape:cx="15.891452"
     inkscape:cy="27.545983"
     inkscape:window-x="0"
     inkscape:window-y="1"
     inkscape:window-maximized="1"
     inkscape:current-layer="svg2" />
  <path
     style="fill:#ff014b;stroke-width:0.14915514;fill-opacity:1"
     d="M 17.246397,38.66783 C 8.749078,37.409154 2.2068151,30.811684 0.98374222,22.267933 c -0.26929483,-1.881178 -0.26929483,-3.040947 0,-4.922119 C 1.4080681,14.381728 2.5727388,11.36546 4.2229471,8.9569181 5.2968112,7.389566 7.5725051,5.1403476 9.1323345,4.1046497 12.316824,1.9902061 16.340535,0.72048027 19.856621,0.72048027 c 3.516088,0 7.539799,1.26972583 10.724276,3.38416943 1.55983,1.0356979 3.835524,3.2849163 4.909398,4.8522684 2.094127,3.0564689 3.452717,7.3257379 3.452717,10.8499519 0,0.53323 -0.0961,1.640708 -0.213522,2.461063 -1.233121,8.613975 -7.797831,15.178685 -16.411807,16.411808 -1.798226,0.257421 -3.276454,0.25395 -5.071286,-0.01191 z m 4.623817,-2.320933 c 8.923757,-1.093576 15.522342,-9.330661 14.562675,-18.178758 -0.415367,-3.829714 -1.876734,-7.003868 -4.492726,-9.7583834 -6.682491,-7.0363652 -17.484603,-7.0363652 -24.1670951,0 -6.123692,6.4479774 -6.123692,16.3462524 0,22.7942294 3.7440761,3.94235 8.8107071,5.790749 14.0971461,5.142912 z m -9.765273,-7.92234 c -0.274453,-0.186769 -0.63941,-0.529101 -0.811031,-0.760741 -0.306792,-0.414101 -0.312018,-0.545875 -0.312018,-7.857039 0,-7.277546 0.0068,-7.444644 0.307522,-7.847727 0.169137,-0.226523 0.492856,-0.550241 0.719382,-0.71938 0.403082,-0.300983 0.570185,-0.307529 7.847724,-0.307529 7.311168,0 7.442945,0.0053 7.857042,0.312022 0.231641,0.171617 0.572186,0.533923 0.756766,0.805123 l 0.335599,0.493099 v 7.226714 c 0,7.986036 0.01009,7.894535 -0.950608,8.579843 -0.46535,0.331936 -0.482492,0.332751 -7.858873,0.373928 l -7.392512,0.04129 z M 26.71251,26.379502 c 0.09486,-0.177292 0.154401,-1.75842 0.154401,-4.101766 v -3.813261 h -0.783067 -0.783057 v 1.528838 c 0,1.628497 -0.170035,2.156432 -1.079068,3.350419 -0.834478,1.096071 -2.758309,1.981878 -4.304313,1.981878 -3.304226,0 -6.016778,-3.038224 -5.45789,-6.113164 l 0.135945,-0.747971 h -0.799993 -0.799983 v 3.922783 c 0,2.852174 0.04889,3.971623 0.178982,4.101764 0.133822,0.133821 1.845039,0.178983 6.781312,0.178983 6.374869,0 6.607646,-0.0099 6.756731,-0.288503 z m -5.261328,-3.565986 c 2.672482,-1.363401 2.612438,-4.968813 -0.103068,-6.185048 -1.412813,-0.632784 -3.147073,-0.267412 -4.152531,0.874841 -1.738036,1.974518 -0.866321,4.741867 1.765079,5.603457 0.575862,0.18855 1.837184,0.04005 2.490465,-0.29325 z m 5.183537,-6.768714 c 0.161831,-0.231047 0.232192,-0.683013 0.232192,-1.491546 0,-1.597509 -0.165933,-1.756678 -1.831248,-1.756678 -1.776905,0 -1.897631,0.111286 -1.897631,1.749287 0,1.756096 0.07632,1.830438 1.879096,1.830438 1.262548,0 1.40599,-0.02942 1.617591,-0.331501 z"
     id="path4487"
     inkscape:connector-curvature="0" />
</svg>
