<?xml version="1.0" encoding="UTF-8" standalone="no"?>
<!-- Created with Inkscape (http://www.inkscape.org/) -->

<svg
   xmlns:dc="http://purl.org/dc/elements/1.1/"
   xmlns:cc="http://creativecommons.org/ns#"
   xmlns:rdf="http://www.w3.org/1999/02/22-rdf-syntax-ns#"
   xmlns:svg="http://www.w3.org/2000/svg"
   xmlns="http://www.w3.org/2000/svg"
   xmlns:sodipodi="http://sodipodi.sourceforge.net/DTD/sodipodi-0.dtd"
   xmlns:inkscape="http://www.inkscape.org/namespaces/inkscape"
   version="1.1"
   id="svg2"
   width="40"
   height="40"
   viewBox="0 0 40 40"
   sodipodi:docname="youtube.svg"
   inkscape:version="0.91 r13725">
  <metadata
     id="metadata8">
    <rdf:RDF>
      <cc:Work
         rdf:about="">
        <dc:format>image/svg+xml</dc:format>
        <dc:type
           rdf:resource="http://purl.org/dc/dcmitype/StillImage" />
        <dc:title />
      </cc:Work>
    </rdf:RDF>
  </metadata>
  <defs
     id="defs6" />
  <sodipodi:namedview
     pagecolor="#ffffff"
     bordercolor="#666666"
     borderopacity="1"
     objecttolerance="10"
     gridtolerance="10"
     guidetolerance="10"
     inkscape:pageopacity="0"
     inkscape:pageshadow="2"
     inkscape:window-width="1280"
     inkscape:window-height="719"
     id="namedview4"
     showgrid="false"
     inkscape:zoom="3.68"
     inkscape:cx="98.863218"
     inkscape:cy="4.252485"
     inkscape:window-x="0"
     inkscape:window-y="1"
     inkscape:window-maximized="1"
     inkscape:current-layer="svg2" />
  <path
     style="fill:#ff014b;stroke-width:0.05769246;fill-opacity:1"
     d="M 18.759146,40.019065 C 15.775609,39.72224 13.883679,39.227164 11.585197,38.141804 7.542316,36.232719 4.2080382,32.898238 2.2926163,28.848633 1.3751146,26.908838 0.84996167,25.117869 0.5459914,22.891924 c -0.18104695,-1.325753 -0.18104695,-3.582537 0,-4.908296 C 0.97936656,14.810109 1.9628898,12.176052 3.6902246,9.5627484 5.0370159,7.5251811 7.0869392,5.475257 9.1245064,4.1284659 11.73781,2.4011315 14.371868,1.4176079 17.545386,0.98423272 c 1.227241,-0.16759031 3.587973,-0.18162148 4.733002,-0.0281595 3.307649,0.44340088 5.954015,1.42012748 8.596184,3.17270028 2.058986,1.3657503 4.066444,3.3736453 5.432761,5.4339429 1.752525,2.6426526 2.744763,5.3318396 3.17177,8.5961796 0.147587,1.128279 0.147587,3.429415 0,4.557702 -0.131566,1.005784 -0.330156,2.023415 -0.559931,2.869199 -1.814986,6.680977 -7.085587,11.95526 -13.758386,13.767997 -1.644402,0.446718 -3.052512,0.640922 -4.843943,0.668079 -0.729812,0.01108 -1.430768,0.0098 -1.557697,-0.0032 z M 22.50916,37.51768 c 2.925502,-0.457941 5.525332,-1.540323 7.817334,-3.254582 3.233009,-2.41807 5.496785,-5.852089 6.451687,-9.786847 0.359432,-1.481067 0.440076,-2.221107 0.440076,-4.038472 0,-1.433908 -0.01691,-1.751246 -0.132529,-2.480774 C 36.763236,15.921428 36.254275,14.339901 35.349776,12.562753 33.727345,9.3750498 31.125726,6.7619984 27.932251,5.112637 26.19922,4.2175653 24.466084,3.6571644 22.480313,3.3497713 21.357787,3.1760069 18.736401,3.159888 17.69184,3.320317 13.742742,3.9268576 10.496576,5.540453 7.799394,8.2376357 5.1022121,10.934819 3.4886166,14.180984 2.882075,18.130081 c -0.1604281,1.04456 -0.1443098,3.665948 0.029457,4.788473 0.5755483,3.718123 2.1660177,6.925747 4.750748,9.581193 1.3140424,1.349987 2.787892,2.436083 4.462232,3.288268 1.787869,0.909953 3.445938,1.441757 5.365405,1.72087 1.165088,0.169418 1.132325,0.167614 2.740393,0.150701 1.172081,-0.01229 1.635355,-0.04119 2.278851,-0.141906 z M 17.086068,27.06943 c -3.100254,-0.06312 -4.469266,-0.190572 -5.02668,-0.467968 -0.149012,-0.07412 -0.397181,-0.248161 -0.5515,-0.386693 -0.532962,-0.478439 -0.738219,-0.991317 -0.925222,-2.31185 -0.115536,-0.815836 -0.127139,-1.129639 -0.127139,-3.436292 0,-2.304202 0.01173,-2.621038 0.126727,-3.433169 0.06967,-0.492089 0.16856,-1.037286 0.219692,-1.211544 0.291016,-0.991834 1.047369,-1.633963 2.101414,-1.784058 1.486286,-0.211642 6.08922,-0.325179 9.696162,-0.239162 4.496267,0.107226 5.158755,0.204165 5.891658,0.862097 0.533124,0.478576 0.738439,0.991777 0.924909,2.311848 0.115123,0.814922 0.126831,1.132228 0.126831,3.436293 0,2.301596 -0.01181,2.621953 -0.126411,3.433168 -0.194697,1.378026 -0.386622,1.87879 -0.902194,2.354025 -0.540463,0.498182 -1.032294,0.641643 -2.601303,0.75878 -0.834803,0.06231 -5.401528,0.180092 -6.34617,0.163657 -0.253849,-0.004 -1.370193,-0.02654 -2.480774,-0.04912 z m 2.809514,-4.975929 c 0.834585,-0.485511 1.991525,-1.153104 2.570982,-1.483552 0.579466,-0.330438 1.045322,-0.625531 1.035247,-0.655763 -0.01017,-0.03018 -1.042352,-0.643738 -2.29395,-1.363371 -1.251598,-0.719624 -2.409639,-1.388254 -2.57341,-1.485841 -0.163779,-0.09758 -0.313058,-0.162145 -0.331733,-0.143469 -0.05915,0.05916 -0.0386,6.014744 0.02072,6.014744 0.0301,0 0.73754,-0.397237 1.572116,-0.882748 z"
     id="path4489"
     inkscape:connector-curvature="0" />
</svg>
